# xmcd CD database file
#
# Track frame offsets:
#	150
#	24543
#	50365
#	66168
#	91870
#	109135
#	149243
#
# Disc length: 2193 seconds
#
# Revision: 0
# Processed by: cddbd v1.5.2PL0 Copyright (c) Steve Scherf et al.
# Submitted via: CDex 1.51
#
DISCID=61088f07
DTITLE=Kathy Hart and The Bluestars - Tonight I Want It All
DYEAR=1991
DGENRE=Blues
TTITLE0=Tonight I Want It All
TTITLE1=Blue Reverie
TTITLE2=Get In, Get The Money and Get Out
TTITLE3=Two Plays For A Quarter
TTITLE4=Good Rockin Daddy
TTITLE5=It Seemed Like Such A Good Idea
TTITLE6=Monkey Ain't Made Outa Gold
EXTD=YEAR: 1991
EXTT0=
EXTT1=
EXTT2=
EXTT3=
EXTT4=
EXTT5=
EXTT6=
PLAYORDER=
